PathFileType  4	(X/Y/Z) C:\Users\antoi\Documents\MyRepositories\mobilecap\ResultsAnalysis
DataRate	CameraRate	NumFrames	NumMarkers	Units	OrigDataRate	OrigDataStartFrame	OrigNumFrames
100.0	100.0	4	51	mm	100.0	215	286
Frame#	Time	r_knee			r_shank_antsup			r_ankle			r_calc			r_5meta			r_toe			L_knee			L_shank_antsup			L_ankle			L_calc			L_5meta			L_toe			r_sh2			r_sh3			r_sh4			L_sh2			L_sh3			r_thigh1			r_thigh2			r_thigh3			r_thigh4			r_thigh5			L_thigh1			L_thigh2			L_thigh3			L_thigh4			r.ASIS			r.PSIS			L.ASIS			L.PSIS			C7			R_Shoulder			L_Shoulder			R_Sternum			L_Sternum			R_humerus			R_elbow_med			R_elbow_lat			R_forearm			R_wrist_radius			R_wrist_ulna			L_humerus			L_elbow_med			L_elbow_lat			L_forearm			L_wrist_radius			L_wrist_ulna			R_HJC			L_HJC			R_HJC_reg			L_HJC_reg			
		X1	Y1	Z1	X2	Y2	Z2	X3	Y3	Z3	X4	Y4	Z4	X5	Y5	Z5	X6	Y6	Z6	X7	Y7	Z7	X8	Y8	Z8	X9	Y9	Z9	X10	Y10	Z10	X11	Y11	Z11	X12	Y12	Z12	X13	Y13	Z13	X14	Y14	Z14	X15	Y15	Z15	X16	Y16	Z16	X17	Y17	Z17	X18	Y18	Z18	X19	Y19	Z19	X20	Y20	Z20	X21	Y21	Z21	X22	Y22	Z22	X23	Y23	Z23	X24	Y24	Z24	X25	Y25	Z25	X26	Y26	Z26	X27	Y27	Z27	X28	Y28	Z28	X29	Y29	Z29	X30	Y30	Z30	X31	Y31	Z31	X32	Y32	Z32	X33	Y33	Z33	X34	Y34	Z34	X35	Y35	Z35	X36	Y36	Z36	X37	Y37	Z37	X38	Y38	Z38	X39	Y39	Z39	X40	Y40	Z40	X41	Y41	Z41	X42	Y42	Z42	X43	Y43	Z43	X44	Y44	Z44	X45	Y45	Z45	X46	Y46	Z46	X47	Y47	Z47	X48	Y48	Z48	X49	Y49	Z49	X50	Y50	Z50	X51	Y51	Z51	

215	2.14000000	43.34443	580.37728	-358.61998	24.17274	432.38106	-356.01713	-223.82426	164.50179	-336.00712	-290.09298	164.65573	-395.70168	-135.56981	47.23737	-311.76668	-91.29691	57.72720	-364.03098	-27.92920	580.35496	-800.30124	-48.85983	380.27421	-821.56233	-270.82186	169.06216	-851.90911	-324.41283	138.34914	-780.85888	-199.30048	62.79513	-947.23243	-134.04931	66.01518	-907.15003	-35.89963	335.68751	-359.11399	-31.37922	463.40132	-317.11866	-95.16085	369.89732	-311.82723	-111.34666	430.02357	-862.76723	-174.47185	328.00246	-858.54277	-92.33751	835.02909	-333.63029	-13.47090	752.00458	-332.89854	-46.59488	691.89712	-329.54521	-172.76724	760.74820	-368.02719	-92.54721	672.90609	-356.20564	-91.83226	864.24829	-749.31887	-29.32978	747.08065	-774.07111	-192.45430	818.85004	-762.32002	-126.32019	703.12833	-798.07470	-143.56747	1015.95393	-386.64169	-309.64125	1107.42965	-472.58889	-142.48103	1036.96697	-658.84439	-305.77136	1118.25982	-564.54068	-28.48495	1518.09965	-475.81185	70.25438	1426.99255	-335.49902	3.79064	1488.80069	-650.09794	89.42646	1397.66299	-484.42861	82.15175	1402.00285	-529.61708	135.59494	1186.91958	-290.87089	85.89099	1030.57404	-290.69402	136.49600	1071.07842	-226.25096	254.26831	1149.77689	-385.67149	296.25578	1186.18045	-454.21251	318.74119	1159.05985	-442.70780	9.36400	1309.98762	-844.84624	-79.10723	1203.57129	-896.09746	-35.99222	1266.45619	-937.82702	130.21922	1278.21520	-820.08840	172.22762	1283.50281	-765.82337	190.86836	1272.23126	-792.93957	-245.72497	951.70603	-432.04143	-247.19357	972.31317	-628.43293	-236.12086	955.52805	-436.86340	-228.59516	976.58739	-615.65779	
216	2.15000000	40.55140	586.23330	-358.01277	22.20631	437.71737	-355.27078	-221.66831	166.22902	-335.93584	-287.39099	167.63345	-396.05588	-135.19037	47.39011	-311.74215	-90.85734	57.38311	-364.05338	-36.43236	587.75901	-802.41051	-54.23204	386.53422	-823.13752	-270.87566	170.09676	-854.75221	-323.98098	140.20571	-783.21769	-199.66879	61.34875	-948.82405	-134.31537	65.13765	-908.36816	-36.33397	340.04146	-358.34514	-34.12022	468.02025	-316.64173	-96.34811	373.66666	-311.50685	-117.38888	434.85928	-864.90763	-178.25773	331.40653	-861.03211	-88.19408	845.81238	-333.01286	-11.98668	759.68922	-332.04781	-46.80641	700.59633	-329.61208	-170.55569	773.43668	-368.67210	-93.13953	683.22936	-356.50879	-88.73580	875.46155	-750.15921	-31.44672	755.57330	-775.02340	-191.25203	834.28467	-762.31400	-130.39448	715.95428	-798.63815	-135.09978	1032.62749	-385.78783	-302.02500	1122.79015	-471.47166	-134.06002	1055.32135	-657.81590	-298.51366	1134.43468	-563.29368	-31.79514	1540.12366	-473.96686	70.29307	1453.05944	-334.17992	2.80000	1514.01250	-647.66929	89.91502	1423.81474	-482.25260	82.72119	1428.00851	-528.16425	132.22410	1210.66009	-284.49159	78.91568	1055.67334	-279.26002	129.85053	1096.93885	-215.58339	245.32362	1176.96860	-375.84278	286.23812	1214.50077	-443.95503	308.47784	1186.98861	-433.47270	4.12880	1343.40654	-848.19025	-87.16136	1239.89292	-904.84031	-42.97529	1303.50167	-943.03309	119.77406	1311.77009	-821.34028	160.57705	1315.32823	-766.05289	179.70320	1304.50833	-793.03958	-236.59274	967.59690	-431.71977	-238.11245	989.38515	-627.98407	-226.63949	971.25712	-436.30771	-219.81025	993.90924	-614.91357	
217	2.16000000	37.43221	592.99773	-356.49475	20.01781	443.95660	-353.70852	-218.95815	168.25624	-335.54176	-284.09129	171.19627	-396.09324	-134.71966	47.45384	-311.72492	-90.44729	57.06870	-364.01849	-45.79237	596.97491	-805.12236	-60.07057	394.54004	-825.47077	-270.03181	171.94054	-857.46781	-322.81346	143.70933	-785.58978	-200.00172	60.30664	-950.26926	-134.22612	64.46511	-909.69605	-36.74384	345.18242	-356.80604	-37.14925	473.43903	-315.57105	-97.78808	378.05310	-310.69826	-124.26826	441.04529	-867.22790	-182.26121	335.98300	-863.54609	-84.45828	856.85827	-331.87229	-10.98603	769.03306	-330.72802	-47.12251	710.50215	-328.88804	-168.27493	787.12457	-368.60140	-93.76577	694.60752	-356.08013	-86.46103	888.07645	-750.61942	-34.37997	765.99894	-776.18041	-190.45896	850.97647	-762.25046	-134.80217	730.64188	-799.44032	-126.47834	1050.29969	-384.75662	-294.59008	1138.88347	-470.23601	-125.53009	1074.20077	-656.61856	-291.07062	1151.32273	-561.91360	-35.29373	1562.76468	-472.13334	70.64861	1480.66336	-332.91465	1.74878	1540.21874	-645.09737	90.13185	1450.65229	-480.28633	83.01652	1454.82237	-526.75317	128.02450	1235.81882	-276.66028	70.44595	1082.61450	-267.13786	121.75530	1124.44601	-204.17847	235.42480	1205.34321	-364.89122	275.09229	1243.84540	-432.76077	297.32401	1216.40188	-422.88921	-0.57094	1378.78443	-851.28450	-94.35066	1278.09126	-912.66170	-48.86893	1342.45476	-948.34392	109.62022	1346.60342	-821.83831	148.56027	1348.27288	-765.27258	168.24520	1337.88215	-791.55705	-227.32642	984.35965	-431.08361	-228.91328	1007.05469	-627.24616	-217.22682	987.59159	-435.99791	-210.37865	1011.78980	-614.35429	
218	2.17000000	33.79061	600.53865	-353.92067	17.49318	450.99055	-351.23215	-215.83897	170.37004	-334.85771	-280.15632	175.25141	-395.59641	-134.13378	47.44030	-311.65158	-89.99681	56.77331	-363.72329	-56.14825	607.94617	-808.01415	-66.50198	404.45068	-828.44278	-268.57830	174.75120	-860.15623	-320.65093	148.88664	-787.91818	-200.26246	59.75387	-951.45740	-133.93928	64.02930	-911.03897	-37.20249	351.06998	-354.33988	-40.52882	479.44447	-313.80286	-99.51616	383.00456	-309.25817	-132.20059	448.77342	-869.57533	-186.76916	341.94110	-866.01700	-80.79285	868.17597	-329.93599	-10.22924	779.83610	-328.83833	-47.58075	721.44715	-327.24460	-165.84148	801.72696	-368.17367	-94.48574	706.91811	-354.77802	-84.74780	901.93538	-750.92148	-38.23374	778.05297	-777.62344	-190.10364	868.91812	-761.95335	-139.78552	746.77250	-800.08322	-117.90575	1068.79184	-383.05342	-286.81866	1155.67337	-468.62949	-116.91260	1093.81507	-654.81331	-283.41206	1168.97039	-560.22195	-38.91335	1586.17202	-470.23534	71.25215	1510.01874	-331.67100	0.63172	1567.89683	-642.45951	90.13746	1478.21836	-478.63264	82.95731	1482.43540	-525.51789	122.69656	1262.67477	-267.58898	59.74674	1111.79108	-254.54729	111.60760	1153.90340	-192.36508	224.39065	1235.10435	-352.78307	263.00852	1273.82928	-421.00401	285.48256	1246.67357	-411.09249	-4.45719	1415.56460	-853.61040	-100.57025	1318.16779	-919.20338	-53.65970	1382.88897	-953.14973	99.97263	1381.66632	-821.37468	136.67890	1381.56091	-763.32987	156.93055	1371.33525	-788.43348	-218.01505	1001.93341	-429.91999	-219.51626	1025.44784	-625.98657	-207.61163	1004.60306	-434.97741	-200.98611	1030.46234	-613.10879	
